<svg width="206" height="206" viewBox="0 0 206 206" fill="none" xmlns="http://www.w3.org/2000/svg">
<path d="M183.469 6.4375H38.625C29.7509 6.4375 22.5312 13.6572 22.5312 22.5312C13.6572 22.5312 6.4375 29.7509 6.4375 38.625V183.469C6.4375 192.343 13.6572 199.562 22.5312 199.562H167.375C176.249 199.562 183.469 192.343 183.469 183.469C192.343 183.469 199.562 176.249 199.562 167.375V22.5312C199.562 13.6572 192.343 6.4375 183.469 6.4375ZM22.5312 28.9688H25.75H167.375C172.699 28.9688 177.031 33.3012 177.031 38.625V48.2812H12.875V38.625C12.875 33.3012 17.2074 28.9688 22.5312 28.9688ZM177.031 183.469C177.031 188.793 172.699 193.125 167.375 193.125H22.5312C17.2074 193.125 12.875 188.793 12.875 183.469V54.7188H177.031V180.25V183.469ZM193.125 167.375C193.125 172.699 188.793 177.031 183.469 177.031V38.625C183.469 29.7509 176.249 22.5312 167.375 22.5312H28.9688C28.9688 17.2074 33.3012 12.875 38.625 12.875H183.469C188.793 12.875 193.125 17.2074 193.125 22.5312V167.375Z" fill="white"/>
<path d="M25.75 35.4062H19.3125V41.8438H25.75V35.4062Z" fill="white"/>
<path d="M38.625 35.4062H32.1875V41.8438H38.625V35.4062Z" fill="white"/>
<path d="M51.5 35.4062H45.0625V41.8438H51.5V35.4062Z" fill="white"/>
<path d="M93.3438 109.438H61.1562V77.25C61.1562 75.47 59.7175 74.0312 57.9375 74.0312C36.639 74.0312 19.3125 91.3578 19.3125 112.656C19.3125 133.955 36.639 151.281 57.9375 151.281C79.236 151.281 96.5625 133.955 96.5625 112.656C96.5625 110.876 95.1237 109.438 93.3438 109.438ZM25.75 112.656C25.75 95.9928 38.4769 82.2487 54.7188 80.6297V108.227L33.0308 133.012C28.4859 127.463 25.75 120.375 25.75 112.656ZM57.9375 144.844C48.101 144.844 39.2913 140.395 33.3817 133.417L37.83 137.305L56.7852 115.643C57.1457 115.782 57.5287 115.875 57.9375 115.875H89.9641C88.345 132.117 74.601 144.844 57.9375 144.844Z" fill="white"/>
<path d="M70.8125 103H106.219C107.999 103 109.438 101.561 109.438 99.7812C109.438 78.4828 92.111 61.1562 70.8125 61.1562C69.0325 61.1562 67.5938 62.595 67.5938 64.375V99.7812C67.5938 101.561 69.0325 103 70.8125 103ZM74.0312 67.7547C89.2141 69.2707 101.323 81.3797 102.839 96.5625H74.0312V67.7547Z" fill="white"/>
<path d="M70.8125 157.719H64.375V160.938H22.5312V167.375H64.375V170.594H70.8125V167.375H96.5625V160.938H70.8125V157.719Z" fill="white"/>
<path d="M48.2812 173.812H41.8438V177.031H22.5312V183.469H41.8438V186.688H48.2812V183.469H96.5625V177.031H48.2812V173.812Z" fill="white"/>
<path d="M164.156 64.375H157.719V103H154.5V109.438H157.719V135.188H164.156V109.438H167.375V103H164.156V64.375Z" fill="white"/>
<path d="M141.625 135.188H148.062V86.9062H151.281V80.4688H148.062V64.375H141.625V80.4688H138.406V86.9062H141.625V135.188Z" fill="white"/>
<path d="M122.312 135.188H128.75V99.7812H131.969V93.3438H128.75V64.375H122.312V93.3438H119.094V99.7812H122.312V135.188Z" fill="white"/>
<path d="M164.156 141.625H106.219C104.439 141.625 103 143.064 103 144.844V180.25C103 182.03 104.439 183.469 106.219 183.469H164.156C165.936 183.469 167.375 182.03 167.375 180.25V144.844C167.375 143.064 165.936 141.625 164.156 141.625ZM160.938 148.062V160.938L153.212 155.144C152.166 154.358 150.747 154.281 149.627 154.957L135.049 163.706L123.755 158.057C122.512 157.439 121.019 157.677 120.04 158.662L109.438 169.261V148.062H160.938ZM110.77 177.031L122.947 164.855L133.745 170.256C134.734 170.745 135.896 170.703 136.842 170.137L151.078 161.594L160.938 168.984V177.031H110.77Z" fill="white"/>
</svg>
