<svg width="196" height="196" viewBox="0 0 196 196" fill="none" xmlns="http://www.w3.org/2000/svg">
<path d="M168.652 9.1875H24.5C20.4389 9.1875 16.5441 10.8008 13.6724 13.6724C10.8008 16.5441 9.1875 20.4389 9.1875 24.5V137.812C9.1875 141.874 10.8008 145.768 13.6724 148.64C16.5441 151.512 20.4389 153.125 24.5 153.125H34.1469V183.75C34.1469 184.562 34.4695 185.341 35.0439 185.916C35.6182 186.49 36.3971 186.812 37.2094 186.812H159.25C160.062 186.812 160.841 186.49 161.416 185.916C161.99 185.341 162.312 184.562 162.312 183.75C162.312 182.938 161.99 182.159 161.416 181.584C160.841 181.01 160.062 180.688 159.25 180.688H40.2719V61.7094C40.2719 60.8971 39.9492 60.1182 39.3749 59.5439C38.8006 58.9695 38.0216 58.6469 37.2094 58.6469C36.3971 58.6469 35.6182 58.9695 35.0439 59.5439C34.4695 60.1182 34.1469 60.8971 34.1469 61.7094V147H24.5C22.0633 147 19.7264 146.032 18.0035 144.309C16.2805 142.586 15.3125 140.249 15.3125 137.812V44.6206H177.839V137.812C177.839 140.249 176.871 142.586 175.148 144.309C173.425 146.032 171.089 147 168.652 147H149.083V79.135C149.083 78.3228 148.76 77.5438 148.186 76.9695C147.611 76.3952 146.832 76.0725 146.02 76.0725H132.882C132.07 76.0725 131.291 76.3952 130.716 76.9695C130.142 77.5438 129.819 78.3228 129.819 79.135V172.388C129.819 173.2 130.142 173.979 130.716 174.554C131.291 175.128 132.07 175.451 132.882 175.451H146.02C146.832 175.451 147.611 175.128 148.186 174.554C148.76 173.979 149.083 173.2 149.083 172.388V153.125H168.652C172.713 153.125 176.608 151.512 179.479 148.64C182.351 145.768 183.964 141.874 183.964 137.812V24.5C183.964 20.4389 182.351 16.5441 179.479 13.6724C176.608 10.8008 172.713 9.1875 168.652 9.1875ZM142.958 169.326H135.944V82.1975H142.958V169.326ZM15.3125 38.4956V24.5C15.3125 22.0633 16.2805 19.7264 18.0035 18.0035C19.7264 16.2805 22.0633 15.3125 24.5 15.3125H168.652C171.089 15.3125 173.425 16.2805 175.148 18.0035C176.871 19.7264 177.839 22.0633 177.839 24.5V38.4956H15.3125Z" fill="white"/>
<path d="M37.2094 23.8569H33.6875C32.8753 23.8569 32.0963 24.1796 31.522 24.7539C30.9477 25.3282 30.625 26.1072 30.625 26.9194C30.625 27.7317 30.9477 28.5106 31.522 29.0849C32.0963 29.6593 32.8753 29.9819 33.6875 29.9819H37.1175C37.9297 29.9819 38.7087 29.6593 39.283 29.0849C39.8573 28.5106 40.18 27.7317 40.18 26.9194C40.18 26.1072 39.8573 25.3282 39.283 24.7539C38.7087 24.1796 37.9297 23.8569 37.1175 23.8569H37.2094Z" fill="white"/>
<path d="M50.4088 23.8569H46.9788C46.1665 23.8569 45.3876 24.1796 44.8132 24.7539C44.2389 25.3282 43.9163 26.1072 43.9163 26.9194C43.9163 27.7317 44.2389 28.5106 44.8132 29.0849C45.3876 29.6593 46.1665 29.9819 46.9788 29.9819H50.4088C51.221 29.9819 51.9999 29.6593 52.5743 29.0849C53.1486 28.5106 53.4713 27.7317 53.4713 26.9194C53.4713 26.1072 53.1486 25.3282 52.5743 24.7539C51.9999 24.1796 51.221 23.8569 50.4088 23.8569Z" fill="white"/>
<path d="M63.6388 23.8569H60.1781C59.3659 23.8569 58.587 24.1796 58.0126 24.7539C57.4383 25.3282 57.1156 26.1072 57.1156 26.9194C57.1156 27.7317 57.4383 28.5106 58.0126 29.0849C58.587 29.6593 59.3659 29.9819 60.1781 29.9819H63.6388C64.451 29.9819 65.2299 29.6593 65.8043 29.0849C66.3786 28.5106 66.7013 27.7317 66.7013 26.9194C66.7013 26.1072 66.3786 25.3282 65.8043 24.7539C65.2299 24.1796 64.451 23.8569 63.6388 23.8569Z" fill="white"/>
<path d="M162.313 23.8569H135.332C134.52 23.8569 133.741 24.1796 133.166 24.7539C132.592 25.3282 132.269 26.1072 132.269 26.9194C132.269 27.7317 132.592 28.5106 133.166 29.0849C133.741 29.6593 134.52 29.9819 135.332 29.9819H162.313C163.125 29.9819 163.904 29.6593 164.478 29.0849C165.052 28.5106 165.375 27.7317 165.375 26.9194C165.375 26.1072 165.052 25.3282 164.478 24.7539C163.904 24.1796 163.125 23.8569 162.313 23.8569Z" fill="white"/>
<path d="M53.1038 86.5156C52.2915 86.5156 51.5126 86.8383 50.9382 87.4126C50.3639 87.9869 50.0413 88.7659 50.0413 89.5781V172.266C50.0413 173.078 50.3639 173.857 50.9382 174.431C51.5126 175.005 52.2915 175.328 53.1038 175.328H66.2419C67.0541 175.328 67.8331 175.005 68.4074 174.431C68.9817 173.857 69.3044 173.078 69.3044 172.266V89.5781C69.3044 88.7659 68.9817 87.9869 68.4074 87.4126C67.8331 86.8383 67.0541 86.5156 66.2419 86.5156H53.1038ZM63.1794 169.203H56.1663V92.6406H63.1794V169.203Z" fill="white"/>
<path d="M79.625 117.171C78.8128 117.171 78.0338 117.494 77.4595 118.068C76.8852 118.643 76.5625 119.422 76.5625 120.234V172.296C76.5625 173.108 76.8852 173.887 77.4595 174.462C78.0338 175.036 78.8128 175.359 79.625 175.359H92.7631C93.5754 175.359 94.3543 175.036 94.9286 174.462C95.503 173.887 95.8256 173.108 95.8256 172.296V120.234C95.8256 119.422 95.503 118.643 94.9286 118.068C94.3543 117.494 93.5754 117.171 92.7631 117.171H79.625ZM89.7006 169.234H82.6875V123.296H89.7006V169.234Z" fill="white"/>
<path d="M106.299 96.9587C105.487 96.9587 104.708 97.2814 104.134 97.8557C103.56 98.4301 103.237 99.209 103.237 100.021V172.388C103.237 173.2 103.56 173.979 104.134 174.554C104.708 175.128 105.487 175.451 106.299 175.451H119.438C120.25 175.451 121.029 175.128 121.603 174.554C122.177 173.979 122.5 173.2 122.5 172.388V100.021C122.5 99.209 122.177 98.4301 121.603 97.8557C121.029 97.2814 120.25 96.9587 119.438 96.9587H106.299ZM116.375 169.326H109.362V103.084H116.375V169.326Z" fill="white"/>
</svg>
