<svg width="202" height="202" viewBox="0 0 202 202" fill="none" xmlns="http://www.w3.org/2000/svg">
<path d="M197.96 202H4.04C2.96853 202 1.94094 201.574 1.18329 200.817C0.425642 200.059 0 199.031 0 197.96V4.04C0 2.96853 0.425642 1.94094 1.18329 1.18329C1.94094 0.425642 2.96853 0 4.04 0H197.96C199.031 0 200.059 0.425642 200.817 1.18329C201.574 1.94094 202 2.96853 202 4.04V197.96C202 199.031 201.574 200.059 200.817 200.817C200.059 201.574 199.031 202 197.96 202ZM8.08 193.92H193.92V8.08H8.08V193.92Z" fill="white"/>
<path d="M197.96 32.32H4.04C2.96853 32.32 1.94094 31.8943 1.18329 31.1367C0.425642 30.3791 0 29.3515 0 28.28C0 27.2085 0.425642 26.1809 1.18329 25.4233C1.94094 24.6656 2.96853 24.24 4.04 24.24H197.96C199.031 24.24 200.059 24.6656 200.817 25.4233C201.574 26.1809 202 27.2085 202 28.28C202 29.3515 201.574 30.3791 200.817 31.1367C200.059 31.8943 199.031 32.32 197.96 32.32Z" fill="white"/>
<path d="M20.2 20.2C22.4312 20.2 24.24 18.3912 24.24 16.16C24.24 13.9288 22.4312 12.12 20.2 12.12C17.9687 12.12 16.16 13.9288 16.16 16.16C16.16 18.3912 17.9687 20.2 20.2 20.2Z" fill="white"/>
<path d="M32.32 20.2C34.5512 20.2 36.36 18.3912 36.36 16.16C36.36 13.9288 34.5512 12.12 32.32 12.12C30.0888 12.12 28.28 13.9288 28.28 16.16C28.28 18.3912 30.0888 20.2 32.32 20.2Z" fill="white"/>
<path d="M44.44 20.2C46.6712 20.2 48.48 18.3912 48.48 16.16C48.48 13.9288 46.6712 12.12 44.44 12.12C42.2088 12.12 40.4 13.9288 40.4 16.16C40.4 18.3912 42.2088 20.2 44.44 20.2Z" fill="white"/>
<path d="M125.24 101H80.8C79.7285 101 78.7009 100.574 77.9433 99.8167C77.1856 99.059 76.76 98.0315 76.76 96.96V52.52C76.76 51.4485 77.1856 50.4209 77.9433 49.6633C78.7009 48.9056 79.7285 48.48 80.8 48.48C93.6534 48.4939 105.976 53.606 115.065 62.6948C124.154 71.7835 129.266 84.1066 129.28 96.96C129.28 98.0315 128.854 99.059 128.097 99.8167C127.339 100.574 126.311 101 125.24 101ZM84.84 92.92H120.998C120.053 83.6524 115.94 74.9945 109.353 68.4074C102.765 61.8202 94.1076 57.707 84.84 56.762V92.92Z" fill="white"/>
<path d="M64.64 161.6C51.7823 161.6 39.4512 156.492 30.3594 147.401C21.2677 138.309 16.16 125.978 16.16 113.12C16.16 100.262 21.2677 87.9312 30.3594 78.8395C39.4512 69.7477 51.7823 64.64 64.64 64.64C65.7114 64.64 66.739 65.0657 67.4967 65.8233C68.2543 66.5809 68.68 67.6085 68.68 68.68V109.08H109.08C110.151 109.08 111.179 109.506 111.937 110.263C112.694 111.021 113.12 112.049 113.12 113.12C113.106 125.973 107.994 138.296 98.9052 147.385C89.8164 156.474 77.4934 161.586 64.64 161.6ZM60.6 72.922C52.9923 73.6867 45.7579 76.5946 39.7373 81.3077C33.7167 86.0208 29.1571 92.3457 26.5885 99.5473C24.0199 106.749 23.5476 114.532 25.2266 121.991C26.9056 129.45 30.6669 136.28 36.0734 141.687C41.4799 147.093 48.3097 150.854 55.7691 152.533C63.2284 154.212 71.0111 153.74 78.2127 151.171C85.4143 148.603 91.7392 144.043 96.4523 138.023C101.165 132.002 104.073 124.768 104.838 117.16H64.64C63.5685 117.16 62.5409 116.734 61.7833 115.977C61.0256 115.219 60.6 114.191 60.6 113.12V72.922Z" fill="white"/>
<path d="M181.8 80.8H137.36C136.289 80.8 135.261 80.3743 134.503 79.6167C133.746 78.859 133.32 77.8315 133.32 76.76V52.52C133.32 51.4485 133.746 50.4209 134.503 49.6633C135.261 48.9056 136.289 48.48 137.36 48.48H181.8C182.871 48.48 183.899 48.9056 184.657 49.6633C185.414 50.4209 185.84 51.4485 185.84 52.52V76.76C185.84 77.8315 185.414 78.859 184.657 79.6167C183.899 80.3743 182.871 80.8 181.8 80.8ZM141.4 72.72H177.76V56.56H141.4V72.72Z" fill="white"/>
<path d="M181.8 101H137.36C136.289 101 135.261 100.574 134.503 99.8167C133.746 99.0591 133.32 98.0315 133.32 96.96C133.32 95.8885 133.746 94.8609 134.503 94.1033C135.261 93.3456 136.289 92.92 137.36 92.92H181.8C182.871 92.92 183.899 93.3456 184.657 94.1033C185.414 94.8609 185.84 95.8885 185.84 96.96C185.84 98.0315 185.414 99.0591 184.657 99.8167C183.899 100.574 182.871 101 181.8 101Z" fill="white"/>
<path d="M181.8 117.16H125.24C124.169 117.16 123.141 116.734 122.383 115.977C121.626 115.219 121.2 114.191 121.2 113.12C121.2 112.048 121.626 111.021 122.383 110.263C123.141 109.506 124.169 109.08 125.24 109.08H181.8C182.871 109.08 183.899 109.506 184.657 110.263C185.414 111.021 185.84 112.048 185.84 113.12C185.84 114.191 185.414 115.219 184.657 115.977C183.899 116.734 182.871 117.16 181.8 117.16Z" fill="white"/>
<path d="M181.8 133.32H137.36C136.289 133.32 135.261 132.894 134.503 132.137C133.746 131.379 133.32 130.351 133.32 129.28C133.32 128.209 133.746 127.181 134.503 126.423C135.261 125.666 136.289 125.24 137.36 125.24H181.8C182.871 125.24 183.899 125.666 184.657 126.423C185.414 127.181 185.84 128.209 185.84 129.28C185.84 130.351 185.414 131.379 184.657 132.137C183.899 132.894 182.871 133.32 181.8 133.32Z" fill="white"/>
<path d="M181.8 149.48H121.2C120.129 149.48 119.101 149.054 118.343 148.297C117.586 147.539 117.16 146.511 117.16 145.44C117.16 144.369 117.586 143.341 118.343 142.583C119.101 141.826 120.129 141.4 121.2 141.4H181.8C182.871 141.4 183.899 141.826 184.657 142.583C185.414 143.341 185.84 144.369 185.84 145.44C185.84 146.511 185.414 147.539 184.657 148.297C183.899 149.054 182.871 149.48 181.8 149.48Z" fill="white"/>
</svg>
