<svg width="200" height="200" viewBox="0 0 200 200" fill="none" xmlns="http://www.w3.org/2000/svg">
<path d="M21.875 193.75H112.5C121.116 193.75 128.125 186.741 128.125 178.125V134.375H121.875V165.625H115.625V137.5C115.625 135.772 114.225 134.375 112.5 134.375H75C73.275 134.375 71.875 135.772 71.875 137.5V165.625H65.625V137.5C65.625 135.772 64.225 134.375 62.5 134.375H21.875C20.15 134.375 18.75 135.772 18.75 137.5V165.625H12.5V34.375H121.875V81.25H128.125V21.875C128.125 13.2594 121.116 6.25 112.5 6.25H21.875C13.2594 6.25 6.25 13.2594 6.25 21.875V178.125C6.25 186.741 13.2594 193.75 21.875 193.75ZM12.5 21.875C12.5 16.7062 16.7062 12.5 21.875 12.5H112.5C117.669 12.5 121.875 16.7062 121.875 21.875V28.125H12.5V21.875ZM78.125 140.625H109.375V165.625H78.125V140.625ZM25 140.625H59.375V165.625H25V140.625ZM12.5 171.875H21.875H62.5H75H112.5H121.875V178.125C121.875 183.294 117.669 187.5 112.5 187.5H21.875C16.7062 187.5 12.5 183.294 12.5 178.125V171.875Z" fill="white"/>
<path d="M65.625 78.125V43.75C65.625 42.0219 64.225 40.625 62.5 40.625H21.875C20.15 40.625 18.75 42.0219 18.75 43.75V78.125C18.75 79.8531 20.15 81.25 21.875 81.25H62.5C64.225 81.25 65.625 79.8531 65.625 78.125ZM59.375 75H25V46.875H59.375V75Z" fill="white"/>
<path d="M146.875 87.5H62.5C60.775 87.5 59.375 88.8969 59.375 90.625V125C59.375 126.728 60.775 128.125 62.5 128.125H135.472C134.791 129.55 134.375 131.128 134.375 132.812V193.75H140.625V132.812C140.625 130.228 142.728 128.125 145.312 128.125C147.897 128.125 150 130.228 150 132.812V173.438V193.75H156.25V173.438C156.25 170.853 158.353 168.75 160.938 168.75C163.522 168.75 165.625 170.853 165.625 173.438V193.75H171.875V173.438C171.875 170.853 173.978 168.75 176.562 168.75C179.147 168.75 181.25 170.853 181.25 173.438V193.75H187.5V173.438C187.5 170.853 189.603 168.75 192.188 168.75V162.5C189.125 162.5 186.362 163.772 184.375 165.806C182.388 163.772 179.625 162.5 176.562 162.5C173.5 162.5 170.737 163.772 168.75 165.806C166.763 163.772 164 162.5 160.938 162.5C159.253 162.5 157.675 162.916 156.25 163.597V132.812C156.25 128.466 153.681 124.734 150 122.972V90.625C150 88.8969 148.6 87.5 146.875 87.5ZM143.75 121.875H65.625V93.75H143.75V121.875Z" fill="white"/>
<path d="M50 103.125H43.75V109.375H50V103.125Z" fill="white"/>
<path d="M37.5 103.125H31.25V109.375H37.5V103.125Z" fill="white"/>
<path d="M25 103.125H18.75V109.375H25V103.125Z" fill="white"/>
<path d="M115.625 43.75H71.875V50H115.625V43.75Z" fill="white"/>
<path d="M115.625 56.25H71.875V62.5H115.625V56.25Z" fill="white"/>
<path d="M115.625 68.75H71.875V75H115.625V68.75Z" fill="white"/>
<path d="M157.166 108.459L166.541 117.834L170.959 113.416L163.794 106.25L170.959 99.0844L166.541 94.6656L157.166 104.041C155.944 105.263 155.944 107.238 157.166 108.459Z" fill="white"/>
<path d="M188.416 94.6656L179.041 104.041C177.819 105.263 177.819 107.238 179.041 108.459L188.416 117.834L192.834 113.416L185.669 106.25L192.834 99.0844L188.416 94.6656Z" fill="white"/>
<path d="M137.5 103.125H106.25V109.375H137.5V103.125Z" fill="white"/>
<path d="M100 103.125H90.625V109.375H100V103.125Z" fill="white"/>
<path d="M84.375 103.125H78.125V109.375H84.375V103.125Z" fill="white"/>
</svg>
