<svg width="40" height="40" viewBox="0 0 40 40" fill="none" xmlns="http://www.w3.org/2000/svg">
<g clip-path="url(#clip0_13_128)">
<path fill-rule="evenodd" clip-rule="evenodd" d="M20 0.493332C8.955 0.493332 0 9.44667 0 20.4933C0 29.33 5.73 36.8267 13.6767 39.4717C14.6767 39.6567 15.0433 39.0383 15.0433 38.51C15.0433 38.0333 15.025 36.4583 15.0167 34.7867C9.45333 35.9967 8.27833 32.4267 8.27833 32.4267C7.36833 30.115 6.05833 29.5 6.05833 29.5C4.24333 28.2583 6.195 28.285 6.195 28.285C8.20333 28.4267 9.26 30.3467 9.26 30.3467C11.0433 33.4033 13.9383 32.52 15.08 32.0083C15.26 30.715 15.7783 29.8333 16.35 29.3333C11.9083 28.8283 7.23833 27.1133 7.23833 19.45C7.23833 17.2667 8.02 15.4817 9.3 14.0817C9.09167 13.5767 8.40667 11.5433 9.49333 8.78833C9.49333 8.78833 11.1733 8.25166 14.995 10.8383C16.59 10.395 18.3 10.1733 20 10.165C21.7 10.1733 23.4117 10.395 25.01 10.8383C28.8267 8.25 30.505 8.78833 30.505 8.78833C31.5933 11.5433 30.9083 13.5767 30.7017 14.0817C31.9833 15.4817 32.76 17.2667 32.76 19.45C32.76 27.1317 28.0817 28.8233 23.6283 29.3183C24.345 29.9383 24.985 31.1567 24.985 33.0217C24.985 35.6983 24.9617 37.8517 24.9617 38.51C24.9617 39.0417 25.3217 39.6667 26.335 39.47C34.2783 36.8217 40.0017 29.3283 40.0017 20.495C40 9.44833 31.045 0.493332 20 0.493332Z" fill="black"/>
<path d="M7.57499 29.21C7.53166 29.31 7.37499 29.34 7.23166 29.2717C7.08666 29.2067 7.00499 29.07 7.05166 28.9717C7.09499 28.87 7.25166 28.8417 7.39666 28.91C7.54166 28.9733 7.62499 29.11 7.57499 29.21Z" fill="black"/>
<path d="M8.38499 30.1133C8.28999 30.2017 8.10332 30.16 7.97665 30.0217C7.84499 29.8817 7.82165 29.695 7.91832 29.6067C8.01665 29.5183 8.19665 29.56 8.32832 29.7C8.45999 29.8383 8.48499 30.0233 8.38499 30.1133Z" fill="black"/>
<path d="M9.17334 31.265C9.05 31.35 8.85 31.27 8.72667 31.0933C8.60334 30.915 8.60334 30.7017 8.73 30.6167C8.85334 30.5317 9.05167 30.6083 9.17667 30.785C9.29834 30.965 9.29834 31.1783 9.17334 31.265Z" fill="black"/>
<path d="M10.2533 32.3783C10.1433 32.5 9.91001 32.4667 9.74001 32.3017C9.56501 32.14 9.51668 31.9117 9.62668 31.79C9.73835 31.6683 9.97335 31.7033 10.145 31.8667C10.3183 32.0283 10.37 32.2583 10.2533 32.3783Z" fill="black"/>
<path d="M11.745 33.0233C11.6967 33.18 11.4717 33.2517 11.245 33.185C11.0183 33.1167 10.87 32.9333 10.9167 32.775C10.9633 32.6167 11.19 32.5433 11.4183 32.615C11.6433 32.6817 11.7917 32.865 11.745 33.0233Z" fill="black"/>
<path d="M13.3817 33.1433C13.3867 33.3083 13.195 33.445 12.9567 33.4483C12.7183 33.4533 12.5233 33.32 12.5217 33.1583C12.5217 32.9917 12.71 32.8567 12.9483 32.8517C13.1867 32.8467 13.3817 32.98 13.3817 33.1433Z" fill="black"/>
<path d="M14.905 32.885C14.9333 33.045 14.7683 33.2117 14.5317 33.255C14.3 33.2983 14.085 33.1983 14.055 33.0383C14.0267 32.8733 14.195 32.7083 14.4267 32.665C14.6617 32.6233 14.875 32.72 14.905 32.885Z" fill="black"/>
</g>
<defs>
<clipPath id="clip0_13_128">
<rect width="40" height="40" fill="white"/>
</clipPath>
</defs>
</svg>
