<svg width="333" height="332" viewBox="0 0 333 332" fill="none" xmlns="http://www.w3.org/2000/svg">
<g clip-path="url(#clip0_14_227)">
<path d="M4.53245 199.074C4.53245 213.097 15.9141 224.466 29.954 224.466C43.994 224.466 55.3756 213.097 55.3756 199.074C55.3756 185.05 43.994 173.682 29.954 173.682C15.9141 173.682 4.53245 185.05 4.53245 199.074Z" fill="white"/>
<path d="M23.1749 254.09C23.1749 265.402 31.9008 274.573 42.6648 274.573C53.4288 274.573 62.1547 265.402 62.1547 254.09C62.1547 242.777 53.4288 233.607 42.6648 233.607C31.9008 233.607 23.1749 242.777 23.1749 254.09Z" fill="white"/>
<path d="M59.6125 294.224C59.6125 301.602 65.3034 307.582 72.3233 307.582C79.3433 307.582 85.0341 301.602 85.0341 294.224C85.0341 286.846 79.3433 280.866 72.3233 280.866C65.3034 280.866 59.6125 286.846 59.6125 294.224Z" fill="white"/>
<path d="M98.9313 317.175C98.9313 321.405 102.194 324.834 106.219 324.834C110.244 324.834 113.506 321.405 113.506 317.175C113.506 312.946 110.244 309.517 106.219 309.517C102.194 309.517 98.9313 312.946 98.9313 317.175Z" fill="white"/>
<path d="M126.726 325.944C126.726 329.289 129.305 332 132.488 332C135.67 332 138.25 329.289 138.25 325.944C138.25 322.6 135.67 319.888 132.488 319.888C129.305 319.888 126.726 322.6 126.726 325.944Z" fill="white"/>
<path d="M22.836 142.575C22.836 131.263 31.5619 122.092 42.3259 122.092C53.0898 122.092 61.8158 131.263 61.8158 142.575C61.8158 153.888 53.0898 163.058 42.3259 163.058C31.5619 163.058 22.836 153.888 22.836 142.575Z" fill="white"/>
<path d="M59.2736 102.441C59.2736 95.0636 64.9644 89.0828 71.9844 89.0828C79.0044 89.0828 84.6952 95.0636 84.6952 102.441C84.6952 109.819 79.0044 115.8 71.9844 115.8C64.9644 115.8 59.2736 109.819 59.2736 102.441Z" fill="white"/>
<path d="M98.5923 79.4897C98.5923 75.2599 101.855 71.8309 105.88 71.8309C109.905 71.8309 113.167 75.2599 113.167 79.4897C113.167 83.7196 109.905 87.1486 105.88 87.1486C101.855 87.1486 98.5923 83.7196 98.5923 79.4897Z" fill="white"/>
<path d="M126.387 70.721C126.387 67.3765 128.966 64.6652 132.149 64.6652C135.331 64.6652 137.911 67.3765 137.911 70.721C137.911 74.0655 135.331 76.7768 132.149 76.7768C128.966 76.7768 126.387 74.0655 126.387 70.721Z" fill="white"/>
<path d="M133.081 54.4443C147.121 54.4443 158.503 43.0759 158.503 29.0522C158.503 15.0286 147.121 3.66016 133.081 3.66016C119.041 3.66016 107.659 15.0286 107.659 29.0522C107.659 43.0759 119.041 54.4443 133.081 54.4443Z" fill="white"/>
<path d="M78.0009 61.2155C89.3264 61.2155 98.5076 52.4997 98.5076 41.7483C98.5076 30.9968 89.3264 22.281 78.0009 22.281C66.6753 22.281 57.4941 30.9968 57.4941 41.7483C57.4941 52.4997 66.6753 61.2155 78.0009 61.2155Z" fill="white"/>
<path d="M37.82 84.0683C45.2062 84.0683 51.194 78.3841 51.194 71.3723C51.194 64.3605 45.2062 58.6763 37.82 58.6763C30.4337 58.6763 24.446 64.3605 24.446 71.3723C24.446 78.3841 30.4337 84.0683 37.82 84.0683Z" fill="white"/>
<path d="M14.8418 112.507C19.0766 112.507 22.5096 109.248 22.5096 105.228C22.5096 101.208 19.0766 97.9493 14.8418 97.9493C10.607 97.9493 7.17406 101.208 7.17406 105.228C7.17406 109.248 10.607 112.507 14.8418 112.507Z" fill="white"/>
<path d="M6.06287 137.222C9.4113 137.222 12.1257 134.646 12.1257 131.467C12.1257 128.288 9.4113 125.711 6.06287 125.711C2.71444 125.711 7.62939e-06 128.288 7.62939e-06 131.467C7.62939e-06 134.646 2.71444 137.222 6.06287 137.222Z" fill="white"/>
<path d="M328.404 132.926C328.404 118.903 317.022 107.534 302.982 107.534C288.942 107.534 277.56 118.903 277.56 132.926C277.56 146.95 288.942 158.318 302.982 158.318C317.022 158.318 328.404 146.95 328.404 132.926Z" fill="white"/>
<path d="M309.761 77.9102C309.761 66.5978 301.035 57.4273 290.271 57.4273C279.507 57.4273 270.781 66.5978 270.781 77.9102C270.781 89.2226 279.507 98.3931 290.271 98.3931C301.035 98.3931 309.761 89.2226 309.761 77.9102Z" fill="white"/>
<path d="M273.323 37.7761C273.323 30.3984 267.633 24.4176 260.613 24.4176C253.593 24.4176 247.902 30.3984 247.902 37.7761C247.902 45.1537 253.593 51.1345 260.613 51.1345C267.633 51.1345 273.323 45.1537 273.323 37.7761Z" fill="white"/>
<path d="M234.005 14.8245C234.005 10.5947 230.742 7.1657 226.717 7.1657C222.692 7.1657 219.43 10.5947 219.43 14.8245C219.43 19.0544 222.692 22.4834 226.717 22.4834C230.742 22.4834 234.005 19.0544 234.005 14.8245Z" fill="white"/>
<path d="M206.21 6.0558C206.21 2.71127 203.631 -2.47955e-05 200.448 -2.47955e-05C197.266 -2.47955e-05 194.686 2.71127 194.686 6.0558C194.686 9.40034 197.266 12.1116 200.448 12.1116C203.631 12.1116 206.21 9.40034 206.21 6.0558Z" fill="white"/>
<path d="M174.798 299.947C174.798 313.971 186.18 325.339 200.22 325.339C214.26 325.339 225.641 313.971 225.641 299.947C225.641 285.924 214.26 274.555 200.22 274.555C186.18 274.555 174.798 285.924 174.798 299.947Z" fill="white"/>
<path d="M235.81 287.251C235.81 298.564 244.536 307.734 255.3 307.734C266.064 307.734 274.79 298.564 274.79 287.251C274.79 275.939 266.064 266.768 255.3 266.768C244.536 266.768 235.81 275.939 235.81 287.251Z" fill="white"/>
<path d="M282.77 257.627C282.77 265.005 288.461 270.985 295.481 270.985C302.501 270.985 308.191 265.005 308.191 257.627C308.191 250.249 302.501 244.269 295.481 244.269C288.461 244.269 282.77 250.249 282.77 257.627Z" fill="white"/>
<path d="M311.171 223.771C311.171 228.001 314.434 231.43 318.459 231.43C322.484 231.43 325.746 228.001 325.746 223.771C325.746 219.541 322.484 216.112 318.459 216.112C314.434 216.112 311.171 219.541 311.171 223.771Z" fill="white"/>
<path d="M321.476 197.533C321.476 200.877 324.055 203.588 327.238 203.588C330.42 203.588 333 200.877 333 197.533C333 194.188 330.42 191.477 327.238 191.477C324.055 191.477 321.476 194.188 321.476 197.533Z" fill="white"/>
<path d="M163.711 287.101C163.711 298.413 154.986 307.584 144.222 307.584C133.458 307.584 124.732 298.413 124.732 287.101C124.732 275.789 133.458 266.618 144.222 266.618C154.986 266.618 163.711 275.789 163.711 287.101Z" fill="white"/>
<path d="M116.751 257.477C116.751 264.855 111.061 270.835 104.041 270.835C97.0207 270.835 91.3299 264.855 91.3299 257.477C91.3299 250.099 97.0207 244.118 104.041 244.118C111.061 244.118 116.751 250.099 116.751 257.477Z" fill="white"/>
<path d="M88.35 223.621C88.35 227.851 85.0873 231.28 81.0625 231.28C77.0377 231.28 73.775 227.851 73.775 223.621C73.775 219.391 77.0377 215.962 81.0625 215.962C85.0873 215.962 88.35 219.391 88.35 223.621Z" fill="white"/>
<path d="M78.0458 197.382C78.0458 200.727 75.4659 203.438 72.2836 203.438C69.1012 203.438 66.5213 200.727 66.5213 197.382C66.5213 194.038 69.1012 191.327 72.2836 191.327C75.4659 191.327 78.0458 194.038 78.0458 197.382Z" fill="white"/>
<path d="M328.404 132.926C328.404 118.903 317.022 107.534 302.982 107.534C288.942 107.534 277.56 118.903 277.56 132.926C277.56 146.95 288.942 158.318 302.982 158.318C317.022 158.318 328.404 146.95 328.404 132.926Z" fill="white"/>
<path d="M309.761 77.9102C309.761 66.5978 301.035 57.4273 290.271 57.4273C279.507 57.4273 270.781 66.5978 270.781 77.9102C270.781 89.2226 279.507 98.3931 290.271 98.3931C301.035 98.3931 309.761 89.2226 309.761 77.9102Z" fill="white"/>
<path d="M273.323 37.7761C273.323 30.3984 267.633 24.4176 260.613 24.4176C253.593 24.4176 247.902 30.3984 247.902 37.7761C247.902 45.1537 253.593 51.1345 260.613 51.1345C267.633 51.1345 273.323 45.1537 273.323 37.7761Z" fill="white"/>
<path d="M234.005 14.8245C234.005 10.5947 230.742 7.1657 226.717 7.1657C222.692 7.1657 219.43 10.5947 219.43 14.8245C219.43 19.0544 222.692 22.4834 226.717 22.4834C230.742 22.4834 234.005 19.0544 234.005 14.8245Z" fill="white"/>
<path d="M206.21 6.0558C206.21 2.71127 203.631 -2.47955e-05 200.448 -2.47955e-05C197.266 -2.47955e-05 194.686 2.71127 194.686 6.0558C194.686 9.40034 197.266 12.1116 200.448 12.1116C203.631 12.1116 206.21 9.40034 206.21 6.0558Z" fill="white"/>
<path d="M309.761 190.44C309.761 201.753 301.035 210.923 290.271 210.923C279.507 210.923 270.781 201.753 270.781 190.44C270.781 179.128 279.507 169.957 290.271 169.957C301.035 169.957 309.761 179.128 309.761 190.44Z" fill="white"/>
<path d="M273.323 230.574C273.323 237.952 267.633 243.933 260.613 243.933C253.593 243.933 247.902 237.952 247.902 230.574C247.902 223.197 253.593 217.216 260.613 217.216C267.633 217.216 273.323 223.197 273.323 230.574Z" fill="white"/>
<path d="M234.005 253.526C234.005 257.756 230.742 261.185 226.717 261.185C222.692 261.185 219.43 257.756 219.43 253.526C219.43 249.296 222.692 245.867 226.717 245.867C230.742 245.867 234.005 249.296 234.005 253.526Z" fill="white"/>
<path d="M206.21 262.295C206.21 265.639 203.631 268.351 200.448 268.351C197.266 268.351 194.686 265.639 194.686 262.295C194.686 258.95 197.266 256.239 200.448 256.239C203.631 256.239 206.21 258.95 206.21 262.295Z" fill="white"/>
<path d="M189.581 23.8891C200.906 23.8891 210.088 32.6049 210.088 43.3564C210.088 54.1078 200.906 62.8236 189.581 62.8236C178.255 62.8236 169.074 54.1078 169.074 43.3564C169.074 32.6049 178.255 23.8891 189.581 23.8891Z" fill="white"/>
<path d="M229.762 60.2844C237.148 60.2844 243.136 65.9686 243.136 72.9804C243.136 79.9923 237.148 85.6765 229.762 85.6765C222.376 85.6765 216.388 79.9923 216.388 72.9804C216.388 65.9686 222.376 60.2844 229.762 60.2844Z" fill="white"/>
<path d="M252.74 99.5574C256.975 99.5574 260.408 102.816 260.408 106.836C260.408 110.857 256.975 114.116 252.74 114.116C248.505 114.116 245.072 110.857 245.072 106.836C245.072 102.816 248.505 99.5574 252.74 99.5574Z" fill="white"/>
<path d="M261.519 127.319C264.867 127.319 267.582 129.896 267.582 133.075C267.582 136.254 264.867 138.831 261.519 138.831C258.171 138.831 255.456 136.254 255.456 133.075C255.456 129.896 258.171 127.319 261.519 127.319Z" fill="white"/>
</g>
<defs>
<clipPath id="clip0_14_227">
<rect width="333" height="332" fill="white"/>
</clipPath>
</defs>
</svg>
