<svg width="85" height="85" viewBox="0 0 85 85" fill="none" xmlns="http://www.w3.org/2000/svg">
<path d="M7.08334 8.5C7.86574 8.5 8.50001 7.86573 8.50001 7.08333C8.50001 6.30093 7.86574 5.66666 7.08334 5.66666C6.30093 5.66666 5.66667 6.30093 5.66667 7.08333C5.66667 7.86573 6.30093 8.5 7.08334 8.5Z" fill="white"/>
<path d="M12.75 8.5C13.5324 8.5 14.1667 7.86573 14.1667 7.08333C14.1667 6.30093 13.5324 5.66666 12.75 5.66666C11.9676 5.66666 11.3333 6.30093 11.3333 7.08333C11.3333 7.86573 11.9676 8.5 12.75 8.5Z" fill="white"/>
<path d="M18.4167 8.5C19.1991 8.5 19.8333 7.86573 19.8333 7.08333C19.8333 6.30093 19.1991 5.66666 18.4167 5.66666C17.6343 5.66666 17 6.30093 17 7.08333C17 7.86573 17.6343 8.5 18.4167 8.5Z" fill="white"/>
<path d="M31.1667 5.66666C30.7909 5.66666 30.4306 5.81592 30.1649 6.0816C29.8993 6.34727 29.75 6.70761 29.75 7.08333C29.75 7.45905 29.8993 7.81939 30.1649 8.08507C30.4306 8.35074 30.7909 8.5 31.1667 8.5H43.9167C44.2924 8.5 44.6527 8.35074 44.9184 8.08507C45.1841 7.81939 45.3333 7.45905 45.3333 7.08333C45.3333 6.70761 45.1841 6.34727 44.9184 6.0816C44.6527 5.81592 44.2924 5.66666 43.9167 5.66666H31.1667Z" fill="white"/>
<path d="M52.4167 5.66666C52.0409 5.66666 51.6806 5.81592 51.4149 6.0816C51.1493 6.34727 51 6.70761 51 7.08333C51 7.45905 51.1493 7.81939 51.4149 8.08507C51.6806 8.35074 52.0409 8.5 52.4167 8.5H73.6667C74.0424 8.5 74.4027 8.35074 74.6684 8.08507C74.9341 7.81939 75.0833 7.45905 75.0833 7.08333C75.0833 6.70761 74.9341 6.34727 74.6684 6.0816C74.4027 5.81592 74.0424 5.66666 73.6667 5.66666H52.4167Z" fill="white"/>
<path d="M83.5833 48.1667C83.2076 48.1667 82.8473 48.3159 82.5816 48.5816C82.3159 48.8473 82.1667 49.2076 82.1667 49.5833V82.1667H2.83333V31.1667C2.83333 30.7909 2.68408 30.4306 2.4184 30.1649C2.15272 29.8993 1.79239 29.75 1.41667 29.75C1.04094 29.75 0.680609 29.8993 0.414932 30.1649C0.149255 30.4306 0 30.7909 0 31.1667V83.5833C0 83.9591 0.149255 84.3194 0.414932 84.5851C0.680609 84.8507 1.04094 85 1.41667 85H83.5833C83.9591 85 84.3194 84.8507 84.5851 84.5851C84.8507 84.3194 85 83.9591 85 83.5833V49.5833C85 49.2076 84.8507 48.8473 84.5851 48.5816C84.3194 48.3159 83.9591 48.1667 83.5833 48.1667Z" fill="white"/>
<path d="M83.5833 0H1.41667C1.04094 0 0.680609 0.149255 0.414932 0.414932C0.149255 0.680609 0 1.04094 0 1.41667V25.5C0 25.8757 0.149255 26.2361 0.414932 26.5017C0.680609 26.7674 1.04094 26.9167 1.41667 26.9167C1.79239 26.9167 2.15272 26.7674 2.4184 26.5017C2.68408 26.2361 2.83333 25.8757 2.83333 25.5V14.1667H77.9167C78.2924 14.1667 78.6527 14.0174 78.9184 13.7517C79.1841 13.4861 79.3333 13.1257 79.3333 12.75C79.3333 12.3743 79.1841 12.0139 78.9184 11.7483C78.6527 11.4826 78.2924 11.3333 77.9167 11.3333H25.5V2.83333H82.1667V36.8333H31.62C31.2443 36.8333 30.8839 36.9826 30.6183 37.2483C30.3526 37.5139 30.2033 37.8743 30.2033 38.25C30.2033 38.6257 30.3526 38.9861 30.6183 39.2517C30.8839 39.5174 31.2443 39.6667 31.62 39.6667H82.1667V43.9167C82.1667 44.2924 82.3159 44.6527 82.5816 44.9184C82.8473 45.1841 83.2076 45.3333 83.5833 45.3333C83.9591 45.3333 84.3194 45.1841 84.5851 44.9184C84.8507 44.6527 85 44.2924 85 43.9167V1.41667C85 1.04094 84.8507 0.680609 84.5851 0.414932C84.3194 0.149255 83.9591 0 83.5833 0ZM22.6667 11.3333H2.83333V2.83333H22.6667V11.3333Z" fill="white"/>
<path d="M12.1833 44.2425C13.6802 44.9511 15.3156 45.3186 16.9717 45.3186C18.6277 45.3186 20.2632 44.9511 21.76 44.2425C24.0927 43.1473 25.9825 41.2897 27.1178 38.9762C28.253 36.6627 28.5659 34.0313 28.0048 31.5161C27.4437 29.0009 26.0422 26.752 24.0313 25.1403C22.0205 23.5286 19.5204 22.6503 16.9433 22.6503C14.3663 22.6503 11.8662 23.5286 9.85534 25.1403C7.84449 26.752 6.44296 29.0009 5.88188 31.5161C5.3208 34.0313 5.63367 36.6627 6.76891 38.9762C7.90414 41.2897 9.79395 43.1473 12.1267 44.2425H12.1833ZM17 36.8333C16.4396 36.8333 15.8918 36.6672 15.4259 36.3558C14.9599 36.0445 14.5968 35.602 14.3823 35.0843C14.1679 34.5666 14.1118 33.9969 14.2211 33.4472C14.3304 32.8976 14.6003 32.3928 14.9965 31.9965C15.3928 31.6003 15.8976 31.3304 16.4472 31.2211C16.9969 31.1118 17.5665 31.1679 18.0843 31.3823C18.602 31.5968 19.0445 31.9599 19.3558 32.4259C19.6672 32.8918 19.8333 33.4396 19.8333 34C19.8333 34.7515 19.5348 35.4721 19.0035 36.0035C18.4721 36.5348 17.7514 36.8333 17 36.8333ZM14.1667 42.0042V41.0833C14.1667 40.7076 14.3159 40.3473 14.5816 40.0816C14.8473 39.8159 15.2076 39.6667 15.5833 39.6667H18.4167C18.7924 39.6667 19.1527 39.8159 19.4184 40.0816C19.6841 40.3473 19.8333 40.7076 19.8333 41.0833V42.0042C18.0023 42.6652 15.9977 42.6652 14.1667 42.0042ZM17 25.5C18.7335 25.4876 20.4294 26.0056 21.8602 26.9844C23.291 27.9632 24.3883 29.3561 25.0049 30.9763C25.6215 32.5965 25.728 34.3665 25.3101 36.049C24.8922 37.7314 23.9698 39.2459 22.6667 40.3892C22.5101 39.3987 22.0083 38.4954 21.25 37.8392C22.0051 37.0326 22.508 36.0229 22.6967 34.9343C22.8854 33.8456 22.7518 32.7256 22.3122 31.7119C21.8727 30.6982 21.1464 29.8351 20.2227 29.2289C19.299 28.6226 18.2182 28.2996 17.1133 28.2996C16.0085 28.2996 14.9277 28.6226 14.004 29.2289C13.0803 29.8351 12.354 30.6982 11.9144 31.7119C11.4749 32.7256 11.3412 33.8456 11.5299 34.9343C11.7187 36.0229 12.2215 37.0326 12.9767 37.8392C12.2184 38.4954 11.7166 39.3987 11.56 40.3892C10.2709 39.2587 9.35381 37.7648 8.92915 36.1037C8.50449 34.4426 8.59211 32.6918 9.18051 31.0814C9.7689 29.471 10.8306 28.0761 12.2261 27.08C13.6216 26.0839 15.2858 25.5331 17 25.5Z" fill="white"/>
<path d="M36.8333 21.25H38.25C38.6257 21.25 38.9861 21.1008 39.2517 20.8351C39.5174 20.5694 39.6667 20.2091 39.6667 19.8333C39.6667 19.4576 39.5174 19.0973 39.2517 18.8316C38.9861 18.5659 38.6257 18.4167 38.25 18.4167H36.8333C35.7062 18.4167 34.6252 18.8644 33.8281 19.6615C33.0311 20.4585 32.5833 21.5395 32.5833 22.6667V24.0833H31.1667C30.7909 24.0833 30.4306 24.2326 30.1649 24.4983C29.8993 24.7639 29.75 25.1243 29.75 25.5C29.75 25.8757 29.8993 26.2361 30.1649 26.5017C30.4306 26.7674 30.7909 26.9167 31.1667 26.9167H32.5833V31.1667C32.5833 31.5424 32.7326 31.9027 32.9983 32.1684C33.2639 32.4341 33.6243 32.5833 34 32.5833C34.3757 32.5833 34.7361 32.4341 35.0017 32.1684C35.2674 31.9027 35.4167 31.5424 35.4167 31.1667V26.9167H36.8333C37.2091 26.9167 37.5694 26.7674 37.8351 26.5017C38.1007 26.2361 38.25 25.8757 38.25 25.5C38.25 25.1243 38.1007 24.7639 37.8351 24.4983C37.5694 24.2326 37.2091 24.0833 36.8333 24.0833H35.4167V22.6667C35.4167 22.2909 35.5659 21.9306 35.8316 21.6649C36.0973 21.3993 36.4576 21.25 36.8333 21.25Z" fill="white"/>
<path d="M52.4167 32.5833C53.5438 32.5833 54.6248 32.1356 55.4219 31.3385C56.2189 30.5415 56.6667 29.4605 56.6667 28.3333V22.6667C56.6667 21.5395 56.2189 20.4585 55.4219 19.6615C54.6248 18.8644 53.5438 18.4167 52.4167 18.4167H46.75C45.6228 18.4167 44.5418 18.8644 43.7448 19.6615C42.9478 20.4585 42.5 21.5395 42.5 22.6667V28.3333C42.5 29.4605 42.9478 30.5415 43.7448 31.3385C44.5418 32.1356 45.6228 32.5833 46.75 32.5833H52.4167ZM45.3333 28.3333V22.6667C45.3333 22.2909 45.4826 21.9306 45.7483 21.6649C46.0139 21.3993 46.3743 21.25 46.75 21.25H52.4167C52.7924 21.25 53.1527 21.3993 53.4184 21.6649C53.6841 21.9306 53.8333 22.2909 53.8333 22.6667V28.3333C53.8333 28.7091 53.6841 29.0694 53.4184 29.3351C53.1527 29.6008 52.7924 29.75 52.4167 29.75H46.75C46.3743 29.75 46.0139 29.6008 45.7483 29.3351C45.4826 29.0694 45.3333 28.7091 45.3333 28.3333Z" fill="white"/>
<path d="M49.5833 26.9167C50.3657 26.9167 51 26.2824 51 25.5C51 24.7176 50.3657 24.0833 49.5833 24.0833C48.8009 24.0833 48.1667 24.7176 48.1667 25.5C48.1667 26.2824 48.8009 26.9167 49.5833 26.9167Z" fill="white"/>
<path d="M68.6942 32.5833C68.8806 32.5844 69.0654 32.5487 69.238 32.4782C69.4106 32.4077 69.5676 32.3038 69.7 32.1725L75.2675 26.605C76.1663 25.7046 76.6711 24.4843 76.6711 23.2121C76.6711 21.9398 76.1663 20.7196 75.2675 19.8192C74.3898 18.9801 73.2326 18.4956 72.0189 18.459C70.8052 18.4223 69.6209 18.8362 68.6942 19.6208C67.7552 18.8282 66.5481 18.4256 65.3212 18.4959C64.0944 18.5663 62.9412 19.1043 62.0991 19.9991C61.2569 20.8939 60.7897 22.0776 60.7938 23.3064C60.7978 24.5352 61.2727 25.7157 62.1208 26.605L67.6883 32.1725C67.8207 32.3038 67.9777 32.4077 68.1503 32.4782C68.3229 32.5487 68.5077 32.5844 68.6942 32.5833ZM63.5517 23.205C63.5465 22.9417 63.5954 22.6801 63.6953 22.4365C63.7952 22.1928 63.944 21.9722 64.1325 21.7883C64.3174 21.6012 64.5382 21.4533 64.7816 21.3535C65.025 21.2536 65.2861 21.204 65.5492 21.2075C66.0778 21.2015 66.5872 21.4053 66.9658 21.7742L67.7592 22.5817C67.8909 22.7144 68.0475 22.8198 68.2202 22.8918C68.3928 22.9637 68.578 23.0007 68.765 23.0007C68.952 23.0007 69.1372 22.9637 69.3098 22.8918C69.4824 22.8198 69.6391 22.7144 69.7708 22.5817L70.5642 21.7883C70.9409 21.4146 71.4501 21.2049 71.9808 21.2049C72.5115 21.2049 73.0207 21.4146 73.3975 21.7883C73.5814 21.9749 73.7263 22.1963 73.8236 22.4395C73.9209 22.6828 73.9687 22.943 73.9642 23.205C73.9695 23.4671 73.9221 23.7275 73.8247 23.9709C73.7274 24.2143 73.5821 24.4356 73.3975 24.6217L68.8217 29.1975L64.26 24.6217C64.0503 24.4474 63.879 24.2315 63.7571 23.9877C63.6352 23.7438 63.5652 23.4773 63.5517 23.205Z" fill="white"/>
<path d="M5.66667 56.6667C5.66667 57.0424 5.81593 57.4027 6.0816 57.6684C6.34728 57.9341 6.70762 58.0833 7.08334 58.0833H26.9167C27.2924 58.0833 27.6527 57.9341 27.9184 57.6684C28.1841 57.4027 28.3333 57.0424 28.3333 56.6667V51C28.3333 50.6243 28.1841 50.2639 27.9184 49.9983C27.6527 49.7326 27.2924 49.5833 26.9167 49.5833H7.08334C6.70762 49.5833 6.34728 49.7326 6.0816 49.9983C5.81593 50.2639 5.66667 50.6243 5.66667 51V56.6667ZM8.50001 52.4167H25.5V55.25H8.50001V52.4167Z" fill="white"/>
<path d="M7.08334 63.75H26.9167C27.2924 63.75 27.6527 63.6008 27.9184 63.3351C28.1841 63.0694 28.3333 62.7091 28.3333 62.3333C28.3333 61.9576 28.1841 61.5973 27.9184 61.3316C27.6527 61.0659 27.2924 60.9167 26.9167 60.9167H7.08334C6.70762 60.9167 6.34728 61.0659 6.0816 61.3316C5.81593 61.5973 5.66667 61.9576 5.66667 62.3333C5.66667 62.7091 5.81593 63.0694 6.0816 63.3351C6.34728 63.6008 6.70762 63.75 7.08334 63.75Z" fill="white"/>
<path d="M7.08334 69.4166H26.9167C27.2924 69.4166 27.6527 69.2674 27.9184 69.0017C28.1841 68.736 28.3333 68.3757 28.3333 68C28.3333 67.6243 28.1841 67.2639 27.9184 66.9982C27.6527 66.7326 27.2924 66.5833 26.9167 66.5833H7.08334C6.70762 66.5833 6.34728 66.7326 6.0816 66.9982C5.81593 67.2639 5.66667 67.6243 5.66667 68C5.66667 68.3757 5.81593 68.736 6.0816 69.0017C6.34728 69.2674 6.70762 69.4166 7.08334 69.4166Z" fill="white"/>
<path d="M7.08334 75.0833H26.9167C27.2924 75.0833 27.6527 74.9341 27.9184 74.6684C28.1841 74.4027 28.3333 74.0424 28.3333 73.6667C28.3333 73.2909 28.1841 72.9306 27.9184 72.6649C27.6527 72.3993 27.2924 72.25 26.9167 72.25H7.08334C6.70762 72.25 6.34728 72.3993 6.0816 72.6649C5.81593 72.9306 5.66667 73.2909 5.66667 73.6667C5.66667 74.0424 5.81593 74.4027 6.0816 74.6684C6.34728 74.9341 6.70762 75.0833 7.08334 75.0833Z" fill="white"/>
<path d="M38.25 48.1667C37.8743 48.1667 37.514 48.3159 37.2483 48.5816C36.9826 48.8473 36.8333 49.2076 36.8333 49.5833C36.8333 49.9591 36.9826 50.3194 37.2483 50.5851C37.514 50.8507 37.8743 51 38.25 51H75.0833C75.4591 51 75.8194 50.8507 76.0851 50.5851C76.3508 50.3194 76.5 49.9591 76.5 49.5833V43.9167C76.5 43.5409 76.3508 43.1806 76.0851 42.9149C75.8194 42.6493 75.4591 42.5 75.0833 42.5H38.25C37.8743 42.5 37.514 42.6493 37.2483 42.9149C36.9826 43.1806 36.8333 43.5409 36.8333 43.9167C36.8333 44.2924 36.9826 44.6527 37.2483 44.9184C37.514 45.1841 37.8743 45.3333 38.25 45.3333H73.6667V48.1667H38.25Z" fill="white"/>
<path d="M38.25 66.5833C37.8743 66.5833 37.514 66.7326 37.2483 66.9983C36.9826 67.2639 36.8333 67.6243 36.8333 68V72.25C36.8333 72.6257 36.9826 72.9861 37.2483 73.2517C37.514 73.5174 37.8743 73.6667 38.25 73.6667H75.0833C75.4591 73.6667 75.8194 73.5174 76.0851 73.2517C76.3508 72.9861 76.5 72.6257 76.5 72.25V55.25C76.5 54.8743 76.3508 54.5139 76.0851 54.2483C75.8194 53.9826 75.4591 53.8333 75.0833 53.8333H38.25C37.8743 53.8333 37.514 53.9826 37.2483 54.2483C36.9826 54.5139 36.8333 54.8743 36.8333 55.25V62.3333C36.8333 62.7091 36.9826 63.0694 37.2483 63.3351C37.514 63.6007 37.8743 63.75 38.25 63.75C38.6257 63.75 38.9861 63.6007 39.2517 63.3351C39.5174 63.0694 39.6667 62.7091 39.6667 62.3333V56.6667H73.6667V70.8333H66.045L62.1775 63.1125C62.0586 62.8804 61.878 62.6857 61.6556 62.5497C61.4331 62.4137 61.1774 62.3418 60.9167 62.3418C60.6559 62.3418 60.4003 62.4137 60.1778 62.5497C59.9553 62.6857 59.7747 62.8804 59.6558 63.1125L58.0833 66.2433L55.0942 60.2792C54.9753 60.0471 54.7947 59.8524 54.5722 59.7164C54.3498 59.5804 54.0941 59.5084 53.8333 59.5084C53.5726 59.5084 53.3169 59.5804 53.0945 59.7164C52.872 59.8524 52.6914 60.0471 52.5725 60.2792L49.5833 66.2433L48.0108 63.1125C47.892 62.8804 47.7113 62.6857 47.4889 62.5497C47.2664 62.4137 47.0107 62.3418 46.75 62.3418C46.4893 62.3418 46.2336 62.4137 46.0111 62.5497C45.7887 62.6857 45.6081 62.8804 45.4892 63.1125L41.6217 70.8333H39.6667V68C39.6667 67.6243 39.5174 67.2639 39.2517 66.9983C38.9861 66.7326 38.6257 66.5833 38.25 66.5833ZM60.9167 66.9233L62.8717 70.8333H60.3783L59.67 69.4167L60.9167 66.9233ZM53.8333 64.09L57.205 70.8333H50.4617L53.8333 64.09ZM46.75 66.9233L47.9967 69.4167L47.2883 70.8333H44.795L46.75 66.9233Z" fill="white"/>
<path d="M66.5833 62.3333C67.3657 62.3333 68 61.6991 68 60.9167C68 60.1343 67.3657 59.5 66.5833 59.5C65.8009 59.5 65.1667 60.1343 65.1667 60.9167C65.1667 61.6991 65.8009 62.3333 66.5833 62.3333Z" fill="white"/>
<path d="M38.25 79.3333H60.9167C61.2924 79.3333 61.6527 79.1841 61.9184 78.9184C62.1841 78.6527 62.3333 78.2924 62.3333 77.9167C62.3333 77.5409 62.1841 77.1806 61.9184 76.9149C61.6527 76.6493 61.2924 76.5 60.9167 76.5H38.25C37.8743 76.5 37.514 76.6493 37.2483 76.9149C36.9826 77.1806 36.8333 77.5409 36.8333 77.9167C36.8333 78.2924 36.9826 78.6527 37.2483 78.9184C37.514 79.1841 37.8743 79.3333 38.25 79.3333Z" fill="white"/>
<path d="M75.0833 76.5H69.4167C69.0409 76.5 68.6806 76.6493 68.4149 76.9149C68.1493 77.1806 68 77.5409 68 77.9167C68 78.2924 68.1493 78.6527 68.4149 78.9184C68.6806 79.1841 69.0409 79.3333 69.4167 79.3333H75.0833C75.4591 79.3333 75.8194 79.1841 76.0851 78.9184C76.3507 78.6527 76.5 78.2924 76.5 77.9167C76.5 77.5409 76.3507 77.1806 76.0851 76.9149C75.8194 76.6493 75.4591 76.5 75.0833 76.5Z" fill="white"/>
</svg>
