<svg width="76" height="83" viewBox="0 0 76 83" fill="none" xmlns="http://www.w3.org/2000/svg">
<path d="M44.6259 65.8829L47.1144 74.3513C46.4458 75.1386 46.0261 76.1433 46.0261 77.2541C46.0261 79.7426 48.0536 81.7665 50.5457 81.7665C52.7556 81.7665 54.5889 80.1587 54.9664 78.0504H63.6937C63.9507 80.2953 65.8407 82.0514 68.1539 82.0514C70.6442 82.0514 72.6699 80.0275 72.6699 77.5399C72.6699 75.0487 70.6442 73.0212 68.1539 73.0212C66.4617 73.0212 65.0022 73.9703 64.2302 75.3543H54.6141C53.896 73.8157 52.3485 72.7408 50.5457 72.7408C50.1808 72.7408 49.8312 72.7957 49.4915 72.8775L48.041 67.9418H70.5732C71.223 67.9418 71.7793 67.4799 71.8988 66.8418L75.9771 45.0024C76.0508 44.6088 75.9448 44.2017 75.6895 43.8944C75.4334 43.5852 75.0532 43.4073 74.6524 43.4073H39.9482L38.4653 38.9731C38.2811 38.424 37.767 38.0528 37.1874 38.0528H31.6667C30.9216 38.0528 30.3186 38.6558 30.3186 39.4008C30.3186 40.1459 30.9216 40.7489 31.6667 40.7489H36.2168L44.6259 65.8829ZM73.0294 46.1034L69.4534 65.2466H47.2555L47.1989 65.0776L47.0839 64.6876C47.0614 64.6103 47.0299 64.5384 46.9949 64.4692L40.8496 46.1034H73.0294ZM68.1539 75.7191C69.1578 75.7191 69.9738 76.537 69.9738 77.5417C69.9738 78.542 69.1578 79.3571 68.1539 79.3571C67.1528 79.3571 66.3376 78.5429 66.3376 77.5417C66.3376 76.537 67.1519 75.7191 68.1539 75.7191ZM52.3503 77.255C52.3503 78.2562 51.5405 79.0713 50.5448 79.0713C49.5391 79.0713 48.7213 78.2562 48.7213 77.255C48.7213 76.2539 49.5391 75.4387 50.5448 75.4387C51.5396 75.4378 52.3503 76.253 52.3503 77.255Z" fill="white"/>
<path d="M31.3656 58.7031H2.6961V17.3764H66.0374V36.7092C66.0374 37.4543 66.6414 38.0573 67.3855 38.0573C68.1296 38.0573 68.7335 37.4543 68.7335 36.7092V1.34805C68.7335 0.603028 68.1296 0 67.3855 0H1.34805C0.603028 0 0 0.603028 0 1.34805V60.0512C0 60.7953 0.603028 61.3992 1.34805 61.3992H31.3656C32.1106 61.3992 32.7136 60.7953 32.7136 60.0512C32.7136 59.3071 32.1106 58.7031 31.3656 58.7031ZM66.0374 2.6961V14.6803H2.6961V2.6961H66.0374Z" fill="white"/>
<path d="M19.4129 9.74911H24.7925C25.5375 9.74911 26.1405 9.14608 26.1405 8.40106C26.1405 7.65604 25.5375 7.05301 24.7925 7.05301H19.4129C18.6678 7.05301 18.0648 7.65604 18.0648 8.40106C18.0648 9.14608 18.6678 9.74911 19.4129 9.74911Z" fill="white"/>
<path d="M8.34982 9.74911H13.7294C14.4745 9.74911 15.0775 9.14608 15.0775 8.40106C15.0775 7.65604 14.4745 7.05301 13.7294 7.05301H8.34982C7.6048 7.05301 7.00177 7.65604 7.00177 8.40106C7.00177 9.14608 7.6048 9.74911 8.34982 9.74911Z" fill="white"/>
</svg>
