<svg width="97" height="97" viewBox="0 0 97 97" fill="none" xmlns="http://www.w3.org/2000/svg">
<path d="M53.7534 48.2336C53.0431 47.8707 52.1686 48.1506 51.8048 48.8629L42.1057 67.8199C41.7418 68.5322 42.0237 69.4047 42.735 69.7686C42.9464 69.8767 43.1713 69.9278 43.3933 69.9278C43.9193 69.9278 44.427 69.6402 44.6827 69.1402L54.3808 50.1833C54.7476 49.47 54.4657 48.5984 53.7534 48.2336Z" fill="white"/>
<path d="M63.9023 47.5097C63.3367 46.9451 62.4207 46.9451 61.8551 47.5097C61.2895 48.0744 61.2895 48.9922 61.8551 49.5569L71.1044 58.8032L61.8551 68.0496C61.2895 68.6142 61.2895 69.5311 61.8551 70.0967C62.1379 70.3795 62.5085 70.5204 62.8792 70.5204C63.2498 70.5204 63.6204 70.3795 63.9032 70.0967L74.1775 59.8263C74.4487 59.5551 74.6012 59.1864 74.6012 58.8023C74.6012 58.4181 74.4487 58.0504 74.1775 57.7782L63.9023 47.5097Z" fill="white"/>
<path d="M34.6604 47.5107C34.0957 46.9451 33.1788 46.9451 32.6132 47.5107L22.3409 57.7802C22.0697 58.0514 21.9172 58.4201 21.9172 58.8042C21.9172 59.1883 22.0697 59.5561 22.3409 59.8282L32.6132 70.0977C32.896 70.3805 33.2667 70.5214 33.6373 70.5214C34.0079 70.5214 34.3785 70.3805 34.6613 70.0977C35.2269 69.5321 35.2269 68.6162 34.6613 68.0506L25.414 58.8042L34.6613 49.5578C35.226 48.9922 35.226 48.0763 34.6604 47.5107Z" fill="white"/>
<path d="M92.5351 8.12097H3.98231C3.18218 8.12097 2.53455 8.7686 2.53455 9.56873V86.9496C2.53455 87.7488 3.18218 88.3974 3.98231 88.3974H92.5351C93.3343 88.3974 93.9829 87.7488 93.9829 86.9496V9.56873C93.9829 8.7686 93.3343 8.12097 92.5351 8.12097ZM91.0873 11.0165V29.2216H5.43007V11.0165H91.0873ZM5.43007 85.5019V32.1171H91.0873V85.5019H5.43007Z" fill="white"/>
<path d="M13.0897 21.09H19.7397C20.5399 21.09 21.1875 20.4424 21.1875 19.6423C21.1875 18.8421 20.5399 18.1945 19.7397 18.1945H13.0897C12.2896 18.1945 11.6419 18.8421 11.6419 19.6423C11.6419 20.4424 12.2896 21.09 13.0897 21.09Z" fill="white"/>
<path d="M27.3395 21.09H33.9896C34.7897 21.09 35.4373 20.4424 35.4373 19.6423C35.4373 18.8421 34.7897 18.1945 33.9896 18.1945H27.3395C26.5394 18.1945 25.8918 18.8421 25.8918 19.6423C25.8918 20.4424 26.5404 21.09 27.3395 21.09Z" fill="white"/>
</svg>
