<svg width="101" height="80" viewBox="0 0 101 80" fill="none" xmlns="http://www.w3.org/2000/svg">
<path d="M84.1667 71.6667C84.1667 72.5867 83.4125 73.3333 82.4833 73.3333C81.5541 73.3333 80.8 72.5867 80.8 71.6667C80.8 70.7467 81.5541 70 82.4833 70C83.4125 70 84.1667 70.7467 84.1667 71.6667ZM79.1167 30H85.85C86.7826 30 87.5333 30.7433 87.5333 31.6667C87.5333 32.59 86.7826 33.3333 85.85 33.3333H79.1167C78.1841 33.3333 77.4333 32.59 77.4333 31.6667C77.4333 30.7433 78.1841 30 79.1167 30ZM69.0167 23.3333C66.2493 23.3333 63.9667 25.5933 63.9667 28.3333V75C63.9667 77.74 66.2493 80 69.0167 80H95.95C98.7174 80 101 77.74 101 75V28.3333C101 25.5933 98.7174 23.3333 95.95 23.3333H69.0167ZM69.0167 26.6667H95.95C96.9129 26.6667 97.6333 27.38 97.6333 28.3333V75C97.6333 75.9533 96.9129 76.6667 95.95 76.6667H69.0167C68.0538 76.6667 67.3333 75.9533 67.3333 75V28.3333C67.3333 27.38 68.0538 26.6667 69.0167 26.6667ZM47.1333 55C47.1333 55.92 46.3792 56.6667 45.45 56.6667C44.5208 56.6667 43.7667 55.92 43.7667 55C43.7667 54.08 44.5208 53.3333 45.45 53.3333C46.3792 53.3333 47.1333 54.08 47.1333 55ZM5.05 0C2.2826 0 0 2.26 0 5V58.3333C0 61.0733 2.2826 63.3333 5.05 63.3333H37.0333V70H31.9833C31.0508 70 30.3 70.7433 30.3 71.6667C30.3 72.59 31.0508 73.3333 31.9833 73.3333H58.9167C59.8492 73.3333 60.6 72.59 60.6 71.6667C60.6 70.7433 59.8492 70 58.9167 70H53.8667V63.3333H58.9167C61.1656 63.3333 61.1252 60 58.9167 60H5.05C4.08713 60 3.36667 59.2867 3.36667 58.3333V50H58.9167C59.8492 50 60.6 49.2567 60.6 48.3333C60.6 47.41 59.8492 46.6667 58.9167 46.6667H3.36667V5C3.36667 4.04667 4.08713 3.33333 5.05 3.33333H85.85C86.8129 3.33333 87.5333 4.04667 87.5333 5V18.3333C87.5333 20.55 90.9 20.5233 90.9 18.3333V5C90.9 2.26 88.6174 0 85.85 0H5.05ZM40.4 63.3333H50.5V70H40.4V63.3333Z" fill="white"/>
</svg>
